<?xml version="1.0" encoding="iso-8859-1"?>
<!-- Generator: Adobe Illustrator 19.0.0, SVG Export Plug-In . SVG Version: 6.00 Build 0)  -->
<svg version="1.1" id="Layer_1" xmlns="http://www.w3.org/2000/svg" xmlns:xlink="http://www.w3.org/1999/xlink" x="0px" y="0px"
	 viewBox="0 0 512 512" style="enable-background:new 0 0 512 512;" xml:space="preserve">
<g>
	<rect x="235.243" y="32.519" style="fill:#BDBCC1;" width="41.514" height="124.541"/>
	<path style="fill:#BDBCC1;" d="M65.038,479.481C29.119,479.481,0,450.362,0,414.443V170.897c0-35.919,29.119-65.038,65.038-65.038
		h381.924c35.92,0,65.038,29.119,65.038,65.038v243.546c0,35.919-29.118,65.038-65.038,65.038H65.038z"/>
</g>
<path style="fill:#ACABB1;" d="M256,105.859H65.038C29.119,105.859,0,134.978,0,170.897v243.546
	c0,35.919,29.119,65.038,65.038,65.038H256V105.859z"/>
<path style="fill:#616064;" d="M512,230.4v-59.503c0-35.919-29.118-65.038-65.038-65.038H65.038C29.119,105.859,0,134.978,0,170.897
	V230.4H512z"/>
<path d="M256,105.859H65.038C29.119,105.859,0,134.978,0,170.897V230.4h256V105.859z"/>
<circle style="fill:#00D7DF;" cx="387.459" cy="168.13" r="20.757"/>
<g>
	<circle style="fill:#FFFFFF;" cx="299.824" cy="168.13" r="20.757"/>
	<circle style="fill:#FFFFFF;" cx="212.176" cy="168.13" r="20.757"/>
</g>
<circle style="fill:#D80027;" cx="124.541" cy="168.13" r="20.757"/>
<g>
</g>
<g>
</g>
<g>
</g>
<g>
</g>
<g>
</g>
<g>
</g>
<g>
</g>
<g>
</g>
<g>
</g>
<g>
</g>
<g>
</g>
<g>
</g>
<g>
</g>
<g>
</g>
<g>
</g>
</svg>
